<svg xmlns="http://www.w3.org/2000/svg" width="12.865" height="12.865" viewBox="0 0 12.865 12.865">
    <g id="Group_137" data-name="Group 137" transform="translate(-498 -1373)">
        <path id="ic_remove_circle_outline_24px" d="M8.433,2a6.433,6.433,0,1,0,6.433,6.433A6.435,6.435,0,0,0,8.433,2Zm0,11.579a5.146,5.146,0,1,1,0-10.292A5.244,5.244,0,0,1,12.069,4.8a5.021,5.021,0,0,1,1.509,3.637A5.153,5.153,0,0,1,8.433,13.579Z" transform="translate(496 1371)" fill="#20b479"/>
        <path id="ic_check_24px" d="M6.085,10.1,4.31,8.272l-.9.866,2.675,2.675L11.829,6.07l-.905-.936Z" transform="translate(496.813 1370.96)" fill="#20b479"/>
    </g>
</svg>
