<svg width="18" height="18" viewBox="0 0 18 18" fill="none" xmlns="http://www.w3.org/2000/svg">
<path fill-rule="evenodd" clip-rule="evenodd" d="M9.00001 4.77157e-06C6.86128 -0.00222441 4.79167 0.77668 3.16207 2.19713C1.53248 3.61759 0.449413 5.58674 0.106975 7.75171C-0.235462 9.91668 0.185109 12.136 1.29332 14.0118C2.40153 15.8877 4.12494 17.2975 6.15471 17.9887C6.60775 18.0737 6.76797 17.7847 6.76797 17.5411C6.76797 17.2975 6.76797 16.7422 6.76797 15.9717C4.25416 16.5326 3.72377 14.7309 3.72377 14.7309C3.557 14.1725 3.20271 13.6927 2.72377 13.3768C1.91161 12.8102 2.79007 12.8102 2.79007 12.8102C3.07476 12.8514 3.34657 12.9586 3.58492 13.1235C3.82326 13.2884 4.02189 13.5068 4.16576 13.762C4.288 13.9894 4.45281 14.1897 4.65073 14.3515C4.84865 14.5133 5.07578 14.6335 5.3191 14.7051C5.56241 14.7767 5.81711 14.7983 6.06859 14.7687C6.32007 14.7391 6.56337 14.6588 6.78454 14.5326C6.81922 14.0665 7.01516 13.6284 7.33703 13.2975C5.33703 13.0652 3.23758 12.272 3.23758 8.76488C3.22385 7.84872 3.5542 6.96223 4.16023 6.28896C3.89032 5.49237 3.92187 4.6209 4.24863 3.84703C4.24863 3.84703 5.00554 3.59774 6.72377 4.79321C8.19923 4.37777 9.75659 4.37777 11.2321 4.79321C12.9503 3.59774 13.7017 3.84703 13.7017 3.84703C14.033 4.61271 14.0724 5.47793 13.8122 6.27196C14.4182 6.94523 14.7486 7.83172 14.7348 8.74788C14.7348 12.2946 12.6298 13.0708 10.6243 13.2805C10.8394 13.5021 11.0054 13.7686 11.1112 14.0619C11.217 14.3552 11.2601 14.6683 11.2376 14.9802C11.2376 16.2153 11.2376 17.2125 11.2376 17.5128C11.2376 17.813 11.3978 18.0453 11.8564 17.9547C13.863 17.2453 15.5606 15.8314 16.6493 13.9629C17.7379 12.0943 18.1475 9.89131 17.8058 7.74306C17.464 5.5948 16.3929 3.63953 14.7816 2.22268C13.1702 0.805834 11.1225 0.0185822 9.00001 4.77157e-06Z" fill="white"/>
</svg>
