<svg xmlns="http://www.w3.org/2000/svg" xmlns:xlink="http://www.w3.org/1999/xlink" width="200" height="51.076" viewBox="0 0 200 51.076">
  <defs>
    <clipPath id="clip-path">
      <rect id="Rectangle_68" data-name="Rectangle 68" width="200" height="51.076" fill="none"/>
    </clipPath>
  </defs>
  <g id="Group_166" data-name="Group 166" transform="translate(0 0)">
    <g id="Group_165" data-name="Group 165" transform="translate(0 0)" clip-path="url(#clip-path)">
      <path id="Path_175" data-name="Path 175" d="M23.709,22.86,6.944,39.625a23.711,23.711,0,0,1,0-33.53Z" transform="translate(0 2.936)" fill="#f9f9f9"/>
      <path id="Path_176" data-name="Path 176" d="M39.275,35.234h0a23.709,23.709,0,0,1-33.528,0L22.51,18.469Z" transform="translate(2.769 8.898)" fill="#fff"/>
      <path id="Path_177" data-name="Path 177" d="M31.816,0l-2.1,2.1-7.209,7.21L17.148,14.67,15.576,13.1,20.94,7.733l-1.3-1.3L14.278,11.8l-1.572-1.572L18.07,4.863l-1.3-1.3L11.407,8.929,9.835,7.357,15.2,1.993,13.206,0,5.747,7.459,22.512,24.224,39.275,7.459ZM18.446,15.968,31.019,3.395l1.572,1.571L20.018,17.54Zm2.87,2.87L33.889,6.265l1.572,1.571L22.888,20.41Z" transform="translate(2.769 0)" fill="#f9f9f9"/>
      <path id="Path_178" data-name="Path 178" d="M12.833,0H25.362L19.1,6.265Z" transform="translate(6.183 0)" fill="#04e8aa"/>
      <path id="Path_179" data-name="Path 179" d="M38.338,32.347a10.636,10.636,0,0,1-4.18-4.5,14.414,14.414,0,0,1-1.421-6.505,14.414,14.414,0,0,1,1.421-6.505,10.635,10.635,0,0,1,4.18-4.5A12.641,12.641,0,0,1,44.91,8.7a12.745,12.745,0,0,1,6.269,1.471,10.634,10.634,0,0,1,4.164,4.113.835.835,0,0,1,.1.367q0,.369-.5.535l-2.507.636a.743.743,0,0,1-.234.034.732.732,0,0,1-.67-.434,7.169,7.169,0,0,0-6.621-3.413,7.838,7.838,0,0,0-4.648,1.305,7.669,7.669,0,0,0-2.709,3.427,12,12,0,0,0-.87,4.6,11.869,11.869,0,0,0,.87,4.582,7.688,7.688,0,0,0,2.709,3.411,7.837,7.837,0,0,0,4.648,1.3,8.416,8.416,0,0,0,4.6-1.237A6.782,6.782,0,0,0,52.3,25.626a.7.7,0,0,1,.837-.535l2.541.335c.379.065.569.245.569.533a2.052,2.052,0,0,1-.068.335,11.914,11.914,0,0,1-4.263,5.769,12.059,12.059,0,0,1-7.006,1.923,12.627,12.627,0,0,1-6.572-1.639" transform="translate(15.772 4.193)" fill="#fff"/>
      <path id="Path_180" data-name="Path 180" d="M70.47,9.136a.705.705,0,0,1,.184.519v1.8a.639.639,0,0,1-.7.7H55.839a.643.643,0,0,0-.7.7v5.585a.641.641,0,0,0,.7.7H64.2a.639.639,0,0,1,.7.7V21.66a.639.639,0,0,1-.7.7h-8.36a.641.641,0,0,0-.7.7v6.487a.641.641,0,0,0,.7.7H69.951a.639.639,0,0,1,.7.7v1.8a.641.641,0,0,1-.7.7H52.193a.641.641,0,0,1-.7-.7V9.654a.639.639,0,0,1,.7-.7H69.951a.7.7,0,0,1,.519.184" transform="translate(24.808 4.313)" fill="#fff"/>
      <path id="Path_181" data-name="Path 181" d="M82.1,23.4a.9.9,0,0,0,.167.4l5.954,8.828a.635.635,0,0,1,.132.4c0,.29-.2.434-.6.434H84.972A.946.946,0,0,1,84.136,33l-6.12-9.3a.942.942,0,0,0-.836-.468H72a.7.7,0,0,0-.52.185.7.7,0,0,0-.184.517v8.828a.639.639,0,0,1-.7.7H68.352a.639.639,0,0,1-.7-.7V9.653a.639.639,0,0,1,.7-.7H80.124a8.722,8.722,0,0,1,5.586,1.722q2.172,1.723,2.172,5.4a6.781,6.781,0,0,1-1.421,4.564A7.186,7.186,0,0,1,82.632,22.9c-.356.111-.535.279-.535.5M72,12.162a.709.709,0,0,0-.52.184.7.7,0,0,0-.184.519v6.421a.639.639,0,0,0,.7.7h6.053a20.394,20.394,0,0,0,3.127-.2,3.858,3.858,0,0,0,2.14-1.07,3.559,3.559,0,0,0,.888-2.642,3.554,3.554,0,0,0-.888-2.642,3.849,3.849,0,0,0-2.14-1.07,20.185,20.185,0,0,0-3.127-.2Z" transform="translate(32.593 4.313)" fill="#fff"/>
      <path id="Path_182" data-name="Path 182" d="M104.051,9.136a.7.7,0,0,1,.182.519v1.8a.637.637,0,0,1-.7.7H96.173a.641.641,0,0,0-.7.7v19.9a.643.643,0,0,1-.7.7H92.528a.641.641,0,0,1-.7-.7v-19.9a.641.641,0,0,0-.7-.7H83.766a.639.639,0,0,1-.7-.7v-1.8a.639.639,0,0,1,.7-.7H103.53a.705.705,0,0,1,.52.184" transform="translate(40.019 4.313)" fill="#fff"/>
      <path id="Path_183" data-name="Path 183" d="M103.61,33.281a.7.7,0,0,1-.519.184h-2.24a.639.639,0,0,1-.7-.7V9.654a.641.641,0,0,1,.7-.7h2.24a.641.641,0,0,1,.7.7V32.763a.7.7,0,0,1-.184.519" transform="translate(48.251 4.313)" fill="#fff"/>
      <path id="Path_184" data-name="Path 184" d="M125.394,9.159a.7.7,0,0,1,.184.519v1.8a.639.639,0,0,1-.7.7H111.132a.641.641,0,0,0-.7.7v5.552a.641.641,0,0,0,.7.7h8.326a.639.639,0,0,1,.7.7v1.8a.639.639,0,0,1-.7.7h-8.326a.639.639,0,0,0-.7.7v9.7a.639.639,0,0,1-.7.7h-2.24a.639.639,0,0,1-.7-.7V9.677a.639.639,0,0,1,.7-.7h17.389a.7.7,0,0,1,.519.184" transform="translate(51.447 4.324)" fill="#fff"/>
      <path id="Path_185" data-name="Path 185" d="M138.537,8.952h2.977a.737.737,0,0,1,.434.117.369.369,0,0,1,.167.317.9.9,0,0,1-.167.436l-8.728,12.44a1.535,1.535,0,0,0-.268.87v9.632a.639.639,0,0,1-.7.7h-2.24a.639.639,0,0,1-.7-.7v-9.6a1.538,1.538,0,0,0-.267-.87L120.311,9.822a.9.9,0,0,1-.167-.436.369.369,0,0,1,.167-.317.739.739,0,0,1,.436-.117h3.109a.965.965,0,0,1,.837.434l5.918,8.828a.712.712,0,0,0,.5.335.642.642,0,0,0,.5-.335L137.7,9.386a.961.961,0,0,1,.836-.434" transform="translate(57.884 4.313)" fill="#fff"/>
    </g>
  </g>
</svg>
