<svg width="300" height="105" viewBox="0 0 300 105" fill="none" xmlns="http://www.w3.org/2000/svg">
<path d="M52.9715 11.1069C52.9715 11.1069 71.1673 14.114 67.4391 30.2173L55.9818 79.7206L47.6942 33.9237C47.6942 33.9237 47.7194 30.4937 45.6538 30.4937H11.3867L15.879 11.1111" fill="white"/>
<path d="M11.386 30.4893L0 79.7204H18.8885L30.287 30.4893" fill="white"/>
<path d="M56.5979 77.0612L55.9807 79.7206H37.0923L47.6932 33.9195L48.7595 33.2871" fill="white"/>
<path d="M73.2207 45.3863C74.1514 40.381 75.9576 35.578 78.5569 31.197C83.465 22.8926 91.194 16.6178 100.342 13.5107C105.079 11.8924 110.055 11.0798 115.062 11.1067C119.512 11.037 123.92 11.9644 127.963 13.8206C131.639 15.5171 134.871 18.0401 137.405 21.1916C139.922 24.3836 141.671 28.1087 142.519 32.0807C143.449 36.4745 143.422 41.0165 142.439 45.3989C141.442 50.4474 139.597 55.2915 136.981 59.7264C134.559 63.84 131.433 67.4985 127.745 70.5359C124.095 73.5134 119.946 75.8232 115.49 77.3583C110.835 78.96 105.942 79.7629 101.018 79.733C96.5685 79.804 92.1582 78.8915 88.1039 77.061C84.4038 75.3808 81.1445 72.8678 78.582 69.7192C76.023 66.5263 74.2268 62.7938 73.3299 58.805C72.3371 54.3908 72.2999 49.816 73.2207 45.3863ZM92.4786 45.3863C92.0097 47.473 91.9272 49.6276 92.2351 51.7439C92.4977 53.6434 93.1787 55.4613 94.2294 57.0669C95.2536 58.5967 96.6467 59.8453 98.2808 60.698C100.128 61.6291 102.178 62.0881 104.247 62.034C106.507 62.0428 108.744 61.5777 110.813 60.6687C112.873 59.7716 114.768 58.5357 116.418 57.0125C118.081 55.4731 119.497 53.6877 120.616 51.7187C121.754 49.7476 122.576 47.6109 123.051 45.3863C123.518 43.3084 123.611 41.1641 123.324 39.0539C123.072 37.1648 122.399 35.356 121.355 33.7601C120.332 32.2294 118.938 30.9806 117.304 30.1291C115.475 29.2045 113.446 28.7456 111.396 28.7931C109.139 28.7857 106.904 29.2405 104.83 30.1291C102.771 31.0082 100.875 32.2272 99.2212 33.735C97.5496 35.2697 96.1163 37.0439 94.9683 38.9995C93.7933 40.978 92.9522 43.1357 92.4786 45.3863Z" fill="white"/>
<path d="M180.224 0L161.772 79.7206C161.772 79.7206 143.677 76.2905 146.977 62.0342L161.336 0H180.224Z" fill="white"/>
<path d="M224.438 0L205.991 79.7206C205.991 79.7206 187.891 76.2905 191.191 62.0342L205.55 0H224.438Z" fill="white"/>
<path d="M158.886 78.2463L161.771 79.7205H175.369L179.53 62.7294H169.193C169.193 62.7294 165.73 62.566 166.674 58.4868C167.619 54.4076 157.173 61.7494 157.173 61.7494L158.886 78.2463Z" fill="white"/>
<path d="M203.101 78.2463L205.989 79.7205H219.575L223.736 62.7294H213.424C213.424 62.7294 209.957 62.566 210.905 58.4868C211.854 54.4076 201.409 61.7494 201.409 61.7494L203.101 78.2463Z" fill="white"/>
<path d="M174.112 19.6841H190.1L185.612 38.095H173.835H168.415V19.6841H174.112Z" fill="white"/>
<path d="M239.982 77.8653L228.16 15.1526C228.16 15.1526 227.501 11.1069 231.77 11.1069H245.902C245.902 11.1069 247.623 11.3833 248.366 15.1526C249.11 18.9219 254.525 56.1207 254.525 56.1207L239.982 77.8653Z" fill="#230158"/>
<path d="M238.888 79.7206L239.983 77.8652H261L246.445 101.792C246.445 101.792 244.345 105 240.752 105H228.392C228.392 105 225.071 104.443 226.02 101.49" fill="white"/>
<path d="M251.877 38.1117L248.368 15.1692C248.368 15.1692 247.83 11.1235 244.669 11.1235H231.771C231.771 11.1235 227.401 11.1235 228.161 15.1692L232.98 40.7544C232.98 40.7544 233.312 38.1117 236.482 38.1117H251.877Z" fill="white"/>
<path d="M247.625 77.8653H239.984L277.005 15.1526C277.005 15.1526 279.499 11.1069 282.702 11.1069H298.043C298.043 11.1069 301.486 11.5257 299.24 15.1526C296.994 18.7795 261.001 77.8653 261.001 77.8653H247.625Z" fill="#E8296F"/>
<path d="M254.184 53.8047L238.537 70.2137L239.981 77.8653L254.184 53.8047Z" fill="#86274A"/>
<path d="M251.877 38.1113L254.186 53.8209L238.539 70.2299L232.981 40.7373C232.981 40.7373 232.376 38.1113 236.482 38.1113H251.877Z" fill="#EB4984"/>
</svg>
