<svg xmlns="http://www.w3.org/2000/svg" xmlns:xlink="http://www.w3.org/1999/xlink" width="130.989" height="35" viewBox="0 0 130.989 35">
  <defs>
    <clipPath id="clip-path">
      <rect id="Rectangle_22" data-name="Rectangle 22" width="130.989" height="35" fill="none"/>
    </clipPath>
  </defs>
  <g id="Group_57" data-name="Group 57" transform="translate(0 0)">
    <g id="Group_56" data-name="Group 56" transform="translate(0 0)" clip-path="url(#clip-path)">
      <path id="Path_101" data-name="Path 101" d="M22.951,6.148a4.793,4.793,0,0,1-.6,1.194c-.4.512-.922.79-1.112,1.218a8.665,8.665,0,0,0-.3,1.873c-.085.667-.916.934-1.359,1.637-.377.6-.277,1.444-.791,1.958-.555.553-1.244.361-1.48,1.179a4.778,4.778,0,0,0-.029,1.727,2.693,2.693,0,0,1-.735,1.831S4.007,13.585,4.789,7.442A4.625,4.625,0,0,1,5.1,6.272c2.722-6.64,11.831-3.064,13.841-2.1s4.008,1.971,4.008,1.971" transform="translate(-1.652 -0.815)" fill="#00d2af"/>
      <path id="Path_102" data-name="Path 102" d="M16.18,18.241a45.917,45.917,0,0,1-4.449-1.657,29.648,29.648,0,0,1-4.1-2.073A7.537,7.537,0,0,1,4.78,11.546a4.01,4.01,0,0,1-.43-2.168L4.36,9.3c.008-.077-.013.076,0-.016.011-.069.022-.137.035-.2q.041-.218.1-.432c.044-.161.1-.321.154-.478l.04-.105.033-.08c-.005.012-.025.058,0,0,.04-.091.082-.183.126-.272A5.584,5.584,0,0,1,6.562,5.671,6.949,6.949,0,0,1,9.515,4.386a14.181,14.181,0,0,1,3.395-.1,8.729,8.729,0,0,1,3.02.666c.694.322,1.345.729,2.014,1.1a17.258,17.258,0,0,0,2.141,1c.364.141.733.268,1.107.382.409.127.584-.514.176-.64a15.911,15.911,0,0,1-2.243-.877c-.719-.347-1.4-.765-2.1-1.15a8.376,8.376,0,0,0-1.77-.77,11.074,11.074,0,0,0-1.639-.306,15.614,15.614,0,0,0-3.59-.037,8.209,8.209,0,0,0-1.543.292,7.8,7.8,0,0,0-1.7.78A6.332,6.332,0,0,0,3.745,8.962a4.274,4.274,0,0,0,.075,1.894A6.8,6.8,0,0,0,6.236,14.33a19.663,19.663,0,0,0,4.043,2.325,47.19,47.19,0,0,0,4.591,1.853q.564.194,1.133.373c.408.129.583-.512.176-.64" transform="translate(-1.276 -1.238)" fill="#e1ff00"/>
      <path id="Path_103" data-name="Path 103" d="M28.519,9.114a6.386,6.386,0,0,0-2.483,2.1,2.84,2.84,0,0,0-.417,1.526,7.222,7.222,0,0,0,.363,1.528,1.227,1.227,0,0,1-.189,1.218,6.268,6.268,0,0,1-1.071.786,3.311,3.311,0,0,0-1.038,1.087,2.1,2.1,0,0,0-.159,1.546c.077.3.2.594.292.891a.936.936,0,0,1,.093.383c0,.008.025-.036.008-.033s-.142.037-.095.029c-.459.07-.921-.128-1.382-.022-.416.1-.24.735.177.64.009,0,.061-.01.009-.005l.054,0c.046,0,.093,0,.138,0,.112,0,.224.013.335.024a3.944,3.944,0,0,0,.614.037.95.95,0,0,0,.653-.256.821.821,0,0,0,.085-.8,5.19,5.19,0,0,1-.4-1.567,1.684,1.684,0,0,1,.636-1.123c.688-.626,1.789-.956,1.957-2a3.422,3.422,0,0,0-.245-1.563,2.379,2.379,0,0,1-.086-1.447,4.731,4.731,0,0,1,2.485-2.4.332.332,0,0,0-.335-.573" transform="translate(-7.715 -3.15)" fill="#e1ff00"/>
      <path id="Path_104" data-name="Path 104" d="M2.279,17.028a10.176,10.176,0,0,0,1.43,3.65A27.779,27.779,0,0,0,6,23.881a12.3,12.3,0,0,0,2.869,2.654,11.389,11.389,0,0,0,3.5,1.425,21.176,21.176,0,0,0,4.32.5.332.332,0,0,0,0-.664A15.038,15.038,0,0,1,9.584,26.19a10.823,10.823,0,0,1-2.8-2.406,26.941,26.941,0,0,1-2.24-3.024,10.212,10.212,0,0,1-1.624-3.909.334.334,0,0,0-.408-.232.34.34,0,0,0-.232.408" transform="translate(-0.79 -5.771)" fill="#e1ff00"/>
      <path id="Path_105" data-name="Path 105" d="M13.083,23.874a9.364,9.364,0,0,0,1.741,4.968.342.342,0,0,0,.454.119.335.335,0,0,0,.119-.454,8.736,8.736,0,0,1-1.651-4.634c-.022-.425-.686-.427-.664,0" transform="translate(-4.545 -8.184)" fill="#e1ff00"/>
      <path id="Path_106" data-name="Path 106" d="M17.735,25.519a9.364,9.364,0,0,0,1.741,4.969.341.341,0,0,0,.454.119.335.335,0,0,0,.119-.454A8.747,8.747,0,0,1,18.4,25.519c-.022-.425-.686-.427-.663,0" transform="translate(-6.162 -8.755)" fill="#e1ff00"/>
      <path id="Path_107" data-name="Path 107" d="M8.344,20.919a9.364,9.364,0,0,0,1.741,4.968.342.342,0,0,0,.454.119.335.335,0,0,0,.119-.454,8.736,8.736,0,0,1-1.651-4.634c-.022-.425-.686-.427-.664,0" transform="translate(-2.899 -7.157)" fill="#e1ff00"/>
      <path id="Path_108" data-name="Path 108" d="M3.7,18.267a15.911,15.911,0,0,0,3.492,4.4,10.847,10.847,0,0,0,2.1,1.413,13.118,13.118,0,0,0,2.69.971,28.378,28.378,0,0,0,3.229.6.343.343,0,0,0,.408-.232.334.334,0,0,0-.232-.408c-.944-.127-1.884-.285-2.811-.5a13.675,13.675,0,0,1-2.659-.865,11.275,11.275,0,0,1-3.855-3.079,17.385,17.385,0,0,1-1.786-2.641c-.208-.373-.782-.039-.573.335" transform="translate(-1.271 -6.174)" fill="#e1ff00"/>
      <path id="Path_109" data-name="Path 109" d="M31.045,14.3A1.188,1.188,0,0,0,30,14.747a3.71,3.71,0,0,0-.739,1.056c-.478,1.042-.248,2.2-.484,3.3a2.539,2.539,0,0,1-.253.714c-.136.243-.326.446-.482.674a3.043,3.043,0,0,0-.452,1.594c-.042.919.223,2.037-.311,2.862-.3.463-.889.484-1.352.691a1.63,1.63,0,0,0-.974,1.191.343.343,0,0,0,.232.408A.335.335,0,0,0,25.591,27a1.033,1.033,0,0,1,.665-.791,3.747,3.747,0,0,0,1.336-.613,3.528,3.528,0,0,0,.664-2.737,4.852,4.852,0,0,1,.1-1.5,8.067,8.067,0,0,1,.786-1.306c.5-1,.32-2.123.493-3.194a2.849,2.849,0,0,1,.555-1.325,2.411,2.411,0,0,1,.438-.466,1.217,1.217,0,0,1,.183-.112c.049-.022-.042.013.007,0l.055-.015c.039-.009-.018,0-.021,0,.024-.007.093.014.014,0,.416.089.594-.551.176-.64" transform="translate(-8.668 -4.963)" fill="#e1ff00"/>
      <path id="Path_110" data-name="Path 110" d="M33.182,12.576a1.807,1.807,0,0,1-1.131-2.767c.229-.362-.345-.7-.573-.335a2.473,2.473,0,0,0,1.528,3.742c.415.1.593-.542.176-.64" transform="translate(-10.804 -3.238)" fill="#e1ff00"/>
      <path id="Path_111" data-name="Path 111" d="M24.56,30.926a4.437,4.437,0,0,1-1.285-1.838,4.517,4.517,0,0,1-.358-2.245.334.334,0,0,0-.332-.332.34.34,0,0,0-.331.332,4.953,4.953,0,0,0,.4,2.467A5.073,5.073,0,0,0,24.09,31.4a.341.341,0,0,0,.469,0,.334.334,0,0,0,0-.469" transform="translate(-7.721 -9.211)" fill="#e1ff00"/>
      <path id="Path_112" data-name="Path 112" d="M14.5,13.948a.877.877,0,0,1,.267-1.032c.193-.145.445-.173.624-.345a1.648,1.648,0,0,0,.35-.781c.232-.781.575-1.8,1.446-2.039a.332.332,0,0,0-.176-.64A2.712,2.712,0,0,0,15.35,10.9c-.077.193-.144.39-.206.589-.029.094-.056.188-.084.283a.948.948,0,0,1-.1.3.543.543,0,0,1-.228.127,1.56,1.56,0,0,0-.315.162,1.5,1.5,0,0,0-.44.484,1.546,1.546,0,0,0-.048,1.443.332.332,0,0,0,.573-.335" transform="translate(-4.786 -3.161)" fill="#e1ff00"/>
      <path id="Path_113" data-name="Path 113" d="M18.808,18.825a2.6,2.6,0,0,1-.244-1.23,1.329,1.329,0,0,1,.3-.928c.132-.106.341-.059.5-.1a.839.839,0,0,0,.478-.327,1.745,1.745,0,0,0,.266-1c.014-.427-.65-.427-.664,0a1.669,1.669,0,0,1-.065.459.453.453,0,0,1-.087.172.189.189,0,0,1-.076.046,2.729,2.729,0,0,1-.353.037.877.877,0,0,0-.279.1,1.113,1.113,0,0,0-.416.436,2.588,2.588,0,0,0-.27,1.272,3.347,3.347,0,0,0,.337,1.393.336.336,0,0,0,.454.119.339.339,0,0,0,.119-.454" transform="translate(-6.218 -5.186)" fill="#e1ff00"/>
      <text id="ААРУУЛ" transform="translate(27.254 20.294)" fill="#e1ff00" font-size="24" font-family="'Nunito', sans-serif" font-weight="200"><tspan x="0" y="0">ААРУУЛ</tspan></text>
      <text id="ЦАХИМ_НОТАРИАТ" data-name="ЦАХИМ НОТАРИАТ" transform="translate(0 32.009)" fill="#fff" font-size="7" font-family="'Nunito', sans-serif" font-weight="200"><tspan x="0" y="0" letter-spacing="0.533em">Ц</tspan><tspan y="0" letter-spacing="0.518em">А</tspan><tspan y="0" letter-spacing="0.533em">ХИМ Н</tspan><tspan y="0" letter-spacing="0.488em">О</tspan><tspan y="0" letter-spacing="0.451em">Т</tspan><tspan y="0" letter-spacing="0.533em">АРИ</tspan><tspan y="0" letter-spacing="0.452em">А</tspan><tspan y="0">Т</tspan></text>
    </g>
  </g>
</svg>
