<svg xmlns="http://www.w3.org/2000/svg" xmlns:xlink="http://www.w3.org/1999/xlink" viewBox="0 0 1227.16 1220.38"><defs><style>.cls-1{fill:url(#linear-gradient);}.cls-2{fill:url(#linear-gradient-2);}.cls-3{fill:#5857a5;}.cls-4{fill:url(#linear-gradient-3);}</style><linearGradient id="linear-gradient" x1="1002.16" y1="770.38" x2="1002.16" y2="1220.38" gradientUnits="userSpaceOnUse"><stop offset="0" stop-color="#fee971"/><stop offset="0.45" stop-color="#f04e27"/><stop offset="1" stop-color="#b9529f"/></linearGradient><linearGradient id="linear-gradient-2" x1="386.86" y1="287.33" x2="625.12" y2="287.33" gradientUnits="userSpaceOnUse"><stop offset="0" stop-color="#b9529f"/><stop offset="0.02" stop-color="#bc5298"/><stop offset="0.17" stop-color="#d25068"/><stop offset="0.31" stop-color="#e34f44"/><stop offset="0.42" stop-color="#ec4e2f"/><stop offset="0.49" stop-color="#f04e27"/><stop offset="0.57" stop-color="#ee4e2c"/><stop offset="0.67" stop-color="#e64f3c"/><stop offset="0.78" stop-color="#db5055"/><stop offset="0.9" stop-color="#cb5178"/><stop offset="1" stop-color="#b9529f"/></linearGradient><linearGradient id="linear-gradient-3" x1="50" y1="1.22" x2="50" y2="101.22" gradientUnits="userSpaceOnUse"><stop offset="0" stop-color="#fee971"/><stop offset="0.02" stop-color="#fde06d"/><stop offset="0.19" stop-color="#f8a24f"/><stop offset="0.33" stop-color="#f37439"/><stop offset="0.44" stop-color="#f1582c"/><stop offset="0.51" stop-color="#f04e27"/><stop offset="0.6" stop-color="#e94f37"/><stop offset="0.77" stop-color="#d65060"/><stop offset="1" stop-color="#b9529f"/></linearGradient></defs><g id="Layer_2" data-name="Layer 2"><g id="Layer_2-2" data-name="Layer 2"><circle class="cls-1" cx="1002.16" cy="995.38" r="225"/><path class="cls-2" d="M582.44,244.66H429.53a42.68,42.68,0,0,0,0,85.35H582.44a42.68,42.68,0,1,0,0-85.35Z"/><path class="cls-3" d="M582.44,422H429.53a42.68,42.68,0,0,0,0,85.36H582.44a42.68,42.68,0,0,0,0-85.36Z"/><path class="cls-3" d="M761.86,720.81v41.57h22c26.63,0,26.63-15.93,26.63-21.17,0-5.05,0-20.4-26.63-20.4Z"/><path class="cls-3" d="M1086,642.28h-69.45V209.69a42.15,42.15,0,0,0-12.36-29.83L836.7,12.34A42.21,42.21,0,0,0,806.88,0H302.77A82.91,82.91,0,0,0,220,82.83V970.76a82.91,82.91,0,0,0,82.82,82.83h631a82.92,82.92,0,0,0,82.83-82.83V885.27H1086a65.36,65.36,0,0,0,65.36-65.36V707.64A65.36,65.36,0,0,0,1086,642.28ZM926.63,961.37H309.89V92.22H748.28v124a54.36,54.36,0,0,0,54.36,54.36h124V642.28h-211a65.36,65.36,0,0,0-65.36,65.36V819.92a65.36,65.36,0,0,0,65.36,65.36h211v76.09ZM837.45,741.21c0,29.71-20.56,48.16-53.63,48.16h-22v25.54a11.94,11.94,0,0,1-11.93,11.94h-3.12a12,12,0,0,1-11.95-11.94V705.76a12,12,0,0,1,11.95-11.94h37C816.9,693.81,837.45,712,837.45,741.21Zm67.7,85.64H862.2a11.94,11.94,0,0,1-11.94-11.94V705.76a11.94,11.94,0,0,1,11.94-11.94h42.95c37.4,0,67.84,29.87,67.84,66.6S942.56,826.85,905.15,826.85Zm171.13-118a11.94,11.94,0,0,1-11.94,11.94h-48.5v28.6h41.32a11.94,11.94,0,0,1,11.94,11.94v3.13a12,12,0,0,1-11.94,11.94h-41.32v38.49a11.94,11.94,0,0,1-11.94,11.94h-3.11a11.94,11.94,0,0,1-11.94-11.94V705.76a12,12,0,0,1,11.94-12h63.55a12,12,0,0,1,11.94,12v3.11Z"/><path class="cls-3" d="M905.15,720.81H877.26v79.05h27.89c22.51,0,40.84-17.71,40.84-39.44S927.67,720.81,905.15,720.81Z"/><circle class="cls-4" cx="50" cy="51.22" r="50"/></g></g></svg>